HIERARCHY
ROOT SpineBase
{
  OFFSET 0.000000 0.000000 0.000000
  CHANNELS 6 Xposition Yposition Zposition Zrotation Xrotation Yrotation
  JOINT SpineMid
  {
    OFFSET 0.000000 26.581333 0.000000
    CHANNELS 3 Zrotation Xrotation Yrotation
    JOINT SpineShoulder
    {
      OFFSET -0.093436 19.758866 -0.636326
      CHANNELS 3 Zrotation Xrotation Yrotation
      JOINT Neck
      {
        OFFSET -0.064911 6.532857 -0.498241
        CHANNELS 3 Zrotation Xrotation Yrotation
        JOINT Head
        {
          OFFSET -3.846168 12.666012 -0.255550
          CHANNELS 3 Zrotation Xrotation Yrotation
          End Site
          {
            OFFSET 0 0 0
          }
        }
      }
      JOINT ShoulderLeft
      {
        OFFSET -11.647986 -3.559647 8.560931
        CHANNELS 3 Zrotation Xrotation Yrotation
        JOINT ElbowLeft
        {
          OFFSET -2.418334 -19.218850 -6.486789
          CHANNELS 3 Zrotation Xrotation Yrotation
          JOINT WristLeft
          {
            OFFSET -8.896970 13.769465 -13.527187
            CHANNELS 3 Zrotation Xrotation Yrotation
            JOINT HandLeft
            {
              OFFSET -3.935183 5.121647 -5.228655
              CHANNELS 3 Zrotation Xrotation Yrotation
              JOINT HandTipLeft
              {
                OFFSET -0.280302 0.429231 -1.377304
                CHANNELS 3 Zrotation Xrotation Yrotation
                End Site
                {
                  OFFSET 0 0 0
                }
              }
              JOINT ThumbLeft
              {
                OFFSET -1.424446 1.103554 -1.353565
                CHANNELS 3 Zrotation Xrotation Yrotation
                End Site
                {
                  OFFSET 0 0 0
                }
              }
            }
          }
        }
      }
      JOINT ShoulderRight
      {
        OFFSET 8.961715 -3.425519 -12.433263
        CHANNELS 3 Zrotation Xrotation Yrotation
        JOINT ElbowRight
        {
          OFFSET 2.425365 -19.252582 -5.889738
          CHANNELS 3 Zrotation Xrotation Yrotation
          JOINT WristRight
          {
            OFFSET -16.944557 7.257554 -7.932987
            CHANNELS 3 Zrotation Xrotation Yrotation
            JOINT HandRight
            {
              OFFSET -4.580397 1.686067 -3.049556
              CHANNELS 3 Zrotation Xrotation Yrotation
              JOINT HandTipRight
              {
                OFFSET -5.113323 1.649263 -1.983133
                CHANNELS 3 Zrotation Xrotation Yrotation
                End Site
                {
                  OFFSET 0 0 0
                }
              }
              JOINT ThumbRight
              {
                OFFSET -1.352079 -0.888538 -4.126394
                CHANNELS 3 Zrotation Xrotation Yrotation
                End Site
                {
                  OFFSET 0 0 0
                }
              }
            }
          }
        }
      }
    }
  }
  JOINT HipLeft
  {
    OFFSET -4.090494 0.002789 1.720978
    CHANNELS 3 Zrotation Xrotation Yrotation
    JOINT KneeLeft
    {
      OFFSET 4.719867 -29.873678 5.367394
      CHANNELS 3 Zrotation Xrotation Yrotation
      JOINT AnkleLeft
      {
        OFFSET 10.140841 -32.600190 6.860010
        CHANNELS 3 Zrotation Xrotation Yrotation
        JOINT FootLeft
        {
          OFFSET -4.704584 -4.011728 -7.680282
          CHANNELS 3 Zrotation Xrotation Yrotation
          End Site
          {
            OFFSET 0 0 0
          }
        }
      }
    }
  }
  JOINT HipRight
  {
    OFFSET 3.704702 1.299947 -7.972921
    CHANNELS 3 Zrotation Xrotation Yrotation
    JOINT KneeRight
    {
      OFFSET 9.531897 -32.379909 5.842343
      CHANNELS 3 Zrotation Xrotation Yrotation
      JOINT AnkleRight
      {
        OFFSET 2.514161 -28.553633 8.683103
        CHANNELS 3 Zrotation Xrotation Yrotation
        JOINT FootRight
        {
          OFFSET -5.798341 -3.079003 -9.275015
          CHANNELS 3 Zrotation Xrotation Yrotation
          End Site
          {
            OFFSET 0 0 0
          }
        }
      }
    }
  }
}
MOTION
Frames: 12
Frame Time: 0.033333
18.387941 71.522618 350.154531 -0.000000 0.000000 51.196046 -0.000000 0.000000 -51.196046 -0.000000 0.000000 0.000000 -0.000000 0.000000 0.000000 0.000000 0.000000 0.000000 -0.000000 0.000000 0.000000 -0.000000 0.000000 0.000000 -0.000000 0.000000 0.000000 -0.000000 0.000000 0.000000 0.000000 0.000000 0.000000 0.000000 0.000000 0.000000 -0.000000 0.000000 0.000000 -0.000000 0.000000 0.000000 -0.000000 0.000000 0.000000 -0.000000 0.000000 0.000000 0.000000 0.000000 0.000000 0.000000 0.000000 0.000000 -0.000000 0.000000 -51.196046 -0.000000 0.000000 0.000000 -0.000000 0.000000 0.000000 0.000000 0.000000 0.000000 -0.000000 0.000000 -51.196046 -0.000000 0.000000 0.000000 -0.000000 0.000000 0.000000 0.000000 0.000000 0.000000
18.317865 71.575371 350.088067 -0.071643 0.049495 50.512109 0.007361 -0.086766 -50.512072 -0.000000 0.000000 0.000000 0.684355 0.438540 0.144106 0.000000 0.000000 0.000000 -0.000000 0.000000 0.000000 3.127195 -3.686869 0.753438 -1.800549 0.887596 -1.405491 1.509221 5.008912 11.771204 0.000000 0.000000 0.000000 0.000000 0.000000 0.000000 0.851692 -0.912084 -0.369230 -0.521768 -0.137661 -1.668538 -0.821856 1.732774 3.252618 0.415264 -0.723535 -1.186612 0.000000 0.000000 0.000000 0.000000 0.000000 0.000000 0.930505 -1.842444 -50.212431 -2.918467 0.494111 -0.452345 6.419832 -7.796811 -0.930757 0.000000 0.000000 0.000000 0.007361 -0.086766 -50.512072 1.135267 1.911253 0.496692 -0.313905 -3.542593 0.045580 0.000000 0.000000 0.000000
18.250617 71.629176 350.019539 -0.124457 0.107315 49.940503 -0.002037 -0.164322 -49.940389 -0.000000 0.000000 0.000000 1.231330 0.796380 0.257316 0.000000 0.000000 0.000000 -0.000000 0.000000 0.000000 6.135530 -7.217463 1.596681 -3.478809 0.857061 -3.143957 0.787564 9.753732 16.869728 0.000000 0.000000 0.000000 0.000000 0.000000 0.000000 1.540964 -1.539173 -0.646203 -1.048226 -0.292804 -2.932904 -1.638621 3.093333 5.768156 1.778165 -1.674134 -1.741256 0.000000 0.000000 0.000000 0.000000 0.000000 0.000000 1.575096 -3.097926 -49.420160 -5.008502 0.818849 -0.772905 11.955465 -14.499035 -1.244843 0.000000 0.000000 0.000000 -0.002037 -0.164322 -49.940389 2.022159 3.357000 0.857700 -0.487022 -6.437145 0.163720 0.000000 0.000000 0.000000
18.186196 71.684030 349.948949 -0.158582 0.173500 49.480172 -0.028859 -0.233275 -49.479991 -0.000000 0.000000 0.000000 1.640711 1.072266 0.341942 0.000000 0.000000 0.000000 -0.000000 0.000000 0.000000 8.931835 -10.493632 2.467467 -5.231617 -0.159938 -5.335833 -0.671736 14.793361 20.410142 0.000000 0.000000 0.000000 0.000000 0.000000 0.000000 2.072493 -1.880321 -0.839254 -1.560499 -0.464124 -3.812469 -2.402893 4.102210 7.546667 2.383924 -2.312294 -2.260001 0.000000 0.000000 0.000000 0.000000 0.000000 0.000000 1.957049 -3.878295 -48.819268 -6.311424 0.974892 -0.983258 16.303473 -19.652152 -1.237683 0.000000 0.000000 0.000000 -0.944591 -0.517147 -49.813480 3.024303 5.234724 1.388140 -0.534282 -8.632087 0.316993 0.000000 0.000000 0.000000
18.124603 71.739936 349.876295 -0.174108 0.248111 49.130065 -0.073695 -0.294010 -49.129877 -0.000000 0.000000 0.000000 1.912221 1.265225 0.399745 0.000000 0.000000 0.000000 -0.000000 0.000000 0.000000 11.425541 -13.441586 3.292500 -7.394756 -1.842416 -8.000827 -2.366028 19.945086 23.746307 0.000000 0.000000 0.000000 0.000000 0.000000 0.000000 2.449589 -1.935117 -0.954254 -2.046818 -0.652548 -4.324568 -3.077317 4.783316 8.588157 2.772990 -2.783381 -2.563197 0.000000 0.000000 0.000000 0.000000 0.000000 0.000000 2.088201 -4.249461 -48.408638 -6.839533 0.964645 -1.093261 19.253476 -23.124323 -1.226887 0.000000 0.000000 0.000000 -1.070033 -0.570449 -49.492226 3.505008 5.816556 1.552674 -0.478483 -10.087158 0.466103 0.000000 0.000000 0.000000
18.065837 71.796892 349.801579 -0.171080 0.331232 48.889177 -0.137075 -0.346689 -48.889097 -0.000000 0.000000 0.000000 2.045449 1.374479 0.431892 0.000000 0.000000 0.000000 -0.000000 0.000000 0.000000 13.534988 -16.014793 3.995722 -10.261471 -3.364383 -10.927413 -3.825850 24.491086 27.043292 0.000000 0.000000 0.000000 0.000000 0.000000 0.000000 2.674066 -1.703104 -0.994583 -2.502062 -0.859735 -4.481942 -3.633181 5.160397 8.891664 2.785245 -3.129273 -3.037037 0.000000 0.000000 0.000000 0.000000 0.000000 0.000000 1.970636 -4.241933 -48.187390 -6.597481 0.794705 -1.104749 20.694168 -24.950746 -1.456965 0.000000 0.000000 0.000000 -1.103872 -0.559695 -49.238091 3.741771 5.830636 1.598151 -0.345512 -10.774775 0.575493 0.000000 0.000000 0.000000
18.005775 71.871826 349.712044 -0.170114 0.428508 48.794728 -0.210328 -0.410269 -48.794845 -0.000000 0.000000 0.000000 2.042639 1.362252 0.428394 0.000000 0.000000 0.000000 -0.000000 0.000000 0.000000 15.691384 -19.248028 4.485301 -13.861540 -5.344406 -14.380957 -6.252861 30.398039 32.243402 0.000000 0.000000 0.000000 0.000000 0.000000 0.000000 2.955547 -1.570796 -1.062702 -3.278295 -0.684334 -4.261156 -3.681617 4.742500 7.268030 2.840312 -3.059927 -2.637066 0.000000 0.000000 0.000000 0.000000 0.000000 0.000000 1.094868 -3.247003 -48.357790 -4.079649 0.273438 -0.789873 23.563348 -29.763528 -2.148812 0.000000 0.000000 0.000000 -0.210328 -0.410269 -48.794845 3.104525 4.210990 1.211705 0.396535 -10.929910 0.954487 0.000000 0.000000 0.000000
17.961478 71.934649 349.634906 -0.120927 0.516171 48.866473 -0.309225 -0.430624 -48.867090 -0.000000 0.000000 0.000000 1.879203 1.258561 0.397574 0.000000 0.000000 0.000000 -0.000000 0.000000 0.000000 17.210249 -21.452920 4.899983 -19.435141 -2.909450 -16.957359 -4.970834 31.045369 33.364203 0.000000 0.000000 0.000000 0.000000 0.000000 0.000000 2.895869 -0.812779 -0.966935 -3.798083 -0.794798 -3.610140 -3.619313 3.972262 4.572887 2.160015 -2.391728 -1.326635 0.000000 0.000000 0.000000 0.000000 0.000000 0.000000 0.418835 -2.303752 -48.619154 -2.247610 -0.173010 -0.561956 21.915015 -29.024302 0.075288 0.000000 0.000000 0.000000 -0.309225 -0.430624 -48.867090 3.093271 3.585514 1.168155 0.612903 -10.577425 0.983334 0.000000 0.000000 0.000000
17.913740 72.051271 349.584718 -0.076887 0.588741 49.020259 -0.394050 -0.444134 -49.021391 -0.000000 0.000000 0.000000 1.688641 1.153434 0.365774 0.000000 0.000000 0.000000 -0.000000 0.000000 0.000000 17.692299 -22.387764 4.937008 -23.526247 1.042273 -17.552207 -2.236711 29.762611 33.271924 0.000000 0.000000 0.000000 0.000000 0.000000 0.000000 2.560091 0.303693 -0.749113 -3.999163 -1.218787 -2.968323 -4.509083 4.463811 4.378285 2.145357 -2.940781 -1.787502 0.000000 0.000000 0.000000 0.000000 0.000000 0.000000 -0.394050 -0.444134 -49.021391 0.326150 -1.052389 -0.255027 20.217490 -26.857160 -4.278812 0.000000 0.000000 0.000000 -0.394050 -0.444134 -49.021391 2.516124 2.446079 0.931181 1.094191 -9.111061 0.999224 0.000000 0.000000 0.000000
17.866669 72.096995 349.496973 0.023681 0.760919 49.004840 -0.589864 -0.481277 -49.007474 0.167156 0.897971 0.020373 1.104340 -0.003892 0.283322 0.000000 0.000000 0.000000 1.362999 -1.699334 -0.405677 14.670225 -19.460168 4.608829 -22.654949 0.457320 -17.901582 -3.459896 29.320757 28.700844 0.000000 0.000000 0.000000 0.000000 0.000000 0.000000 2.355854 1.035531 -0.550059 -4.423853 -1.973586 -1.769885 -5.313798 5.082703 4.772470 2.773689 -3.758134 -2.060841 0.000000 0.000000 0.000000 0.000000 0.000000 0.000000 -1.249485 0.052579 -49.183579 1.820594 -1.089209 0.001560 18.501222 -24.143077 -8.901475 0.000000 0.000000 0.000000 -0.589864 -0.481277 -49.007474 1.518839 0.926674 0.531899 1.677635 -6.658577 0.909369 0.000000 0.000000 0.000000
17.816607 72.066447 349.410002 0.151139 0.951474 48.825198 0.119241 -0.166501 -48.808720 0.016423 0.163899 0.022995 0.282536 -0.194076 0.251112 0.000000 0.000000 0.000000 1.806485 -0.431934 -0.832956 14.900549 -21.091706 5.824191 -22.548765 2.195725 -16.592862 -4.450856 28.434832 23.900611 0.000000 0.000000 0.000000 0.000000 0.000000 0.000000 1.444072 2.182492 -0.200251 -4.425315 -2.358755 -0.784481 -6.469578 6.559059 7.849887 2.921441 -5.100500 -3.875745 0.000000 0.000000 0.000000 0.000000 0.000000 0.000000 -1.893620 0.240278 -49.112244 2.485240 -0.797656 0.184989 15.404168 -18.508845 -12.328049 0.000000 0.000000 0.000000 -0.815707 -0.512624 -48.830102 1.391845 0.677272 0.475029 1.023876 -4.938157 0.366563 0.000000 0.000000 0.000000
17.777496 71.966509 349.267378 0.280072 1.184288 48.603134 0.114419 -0.202982 -48.581613 0.029330 0.172808 0.031766 -0.538566 -1.308193 -0.060173 0.000000 0.000000 0.000000 1.828458 2.030625 -1.284916 17.095518 -25.181441 8.036590 -26.641554 7.915102 -15.384682 -1.400417 25.122352 20.260747 0.000000 0.000000 0.000000 0.000000 0.000000 0.000000 -1.847231 4.993440 1.160413 -2.946984 -3.549205 0.433455 -5.167001 6.297062 9.131598 0.796709 -4.424379 -4.367283 0.000000 0.000000 0.000000 0.000000 0.000000 0.000000 -2.631771 0.315929 -49.012247 3.218807 -0.408183 0.391116 13.243486 -15.077042 -13.190112 0.000000 0.000000 0.000000 -1.073635 -0.572985 -48.611397 1.336923 1.060231 0.488430 -0.711104 -1.648648 -1.328614 0.000000 0.000000 0.000000
